<!--?xml version="1.0" standalone="no"?-->
              <svg id="sw-js-blob-svg" viewBox="0 0 100 100" xmlns="http://www.w3.org/2000/svg" version="1.1">
                    <defs> 
                        <linearGradient id="sw-gradient" x1="0" x2="1" y1="1" y2="0">
                            <stop id="stop1" stop-color="rgba(107, 31, 248, 1)" offset="0%"></stop>
                            <stop id="stop2" stop-color="rgba(165.138, 7.517, 29.208, 1)" offset="100%"></stop>
                        </linearGradient>
                    </defs>
                <path fill="url(#sw-gradient)" d="M15.4,-31.4C16.2,-23.5,10.6,-12.9,14.4,-6.1C18.2,0.7,31.6,3.6,31.8,4.8C32,6.1,19.2,5.8,13.3,10.3C7.5,14.8,8.7,24.1,6.7,26.4C4.7,28.6,-0.5,23.8,-4.2,20.1C-7.9,16.3,-10.2,13.6,-13.6,11C-16.9,8.5,-21.3,6.1,-25.2,1.5C-29.1,-3,-32.5,-9.7,-30.2,-13.4C-27.9,-17,-19.8,-17.7,-13.8,-23.2C-7.9,-28.8,-3.9,-39.3,1.7,-41.9C7.3,-44.5,14.6,-39.3,15.4,-31.4Z" width="100%" height="100%" transform="translate(50 50)" stroke-width="0" style="transition: all 0.3s ease 0s;" stroke="url(#sw-gradient)"></path>
              </svg>